M48
;GenerationSoftware,Autodesk,EAGLE,9.3.1*%
;CreationDate,2020-07-25T07:48:21Z*%
FMAT,2
ICI,OFF
METRIC,TZ,000.000
T11C0.350
T10C0.600
T9C0.650
T8C0.900
T7C0.914
T6C1.020
T5C1.200
T4C2.000
T3C2.200
T2C3.000
T1C3.300
%
G90
M71
T1
X93726Y93218
X6096Y93218
X6096Y5588
X93726Y5588
T2
X72390Y95250
X58420Y95250
X43180Y95250
T3
X34290Y33020
X10320Y33020
X20320Y33020
X44290Y33020
T4
X38930Y15770
X31430Y3270
X16430Y3270
X23930Y15770
T5
X95880Y15240
X90880Y15240
X85880Y15240
X75880Y15240
X70880Y15240
X65880Y15240
X60880Y15240
X55880Y15240
X80880Y15240
X80880Y42740
X75880Y42740
X65880Y42740
X60880Y42740
X55880Y42740
X70880Y42740
X95880Y42740
X90880Y42740
X85880Y42740
T6
X75390Y90930
X72390Y90930
X69390Y90930
X61420Y90930
X58420Y90930
X44680Y87930
X44680Y90930
X41680Y87930
X41680Y90930
X55420Y90930
T7
X92202Y75692
X94742Y78232
X92202Y78232
X94742Y73152
X92202Y70612
X94742Y70612
X95758Y61849
X93218Y61849
X92202Y73152
X90678Y61849
X94742Y75692
X94742Y80772
X92202Y80772
T8
X13970Y80264
X19050Y80264
X16510Y80264
T9
X3810Y25400
X3810Y27940
X6350Y25400
X6350Y27940
X8890Y25400
X8890Y27940
X11430Y25400
X11430Y27940
X38100Y19050
X40640Y21590
X45720Y21590
X45720Y24130
X43180Y24130
X40640Y24130
X38100Y22860
X38100Y25400
X40640Y26670
X43180Y26670
X45720Y26670
X45720Y29210
X43180Y29210
X57150Y29210
X59690Y29210
X62230Y29210
X62230Y31750
X59690Y31750
X57150Y31750
X57150Y34290
X59690Y34290
X62230Y34290
X62230Y36830
X59690Y36830
X57150Y36830
X57150Y39370
X59690Y39370
X62230Y39370
X43180Y21590
X40640Y29210
X11430Y22860
X8890Y22860
X8890Y20320
X11430Y20320
X8890Y17780
X11430Y17780
X6350Y17780
X3810Y17780
X3810Y20320
X6350Y20320
X6350Y22860
X3810Y22860
T10
X11430Y36830
X8890Y36830
X6350Y36830
X3810Y36830
T11
X38481Y36068
X37211Y45037
X37338Y46609
X30099Y42799
X28448Y34036
X36449Y11811
X26416Y11938
X28829Y42926
X34417Y57785
X37465Y58674
X27559Y34671
X39624Y36195
X36322Y15875
X34417Y14224
X27686Y51689
X25146Y53401
X35814Y57023
X48768Y56769
X66675Y31496
X64135Y72136
X65786Y82423
X48260Y74708
X48188Y75697
X57658Y84074
X56622Y78105
X64135Y68707
X90170Y70866
X88519Y69723
X53340Y72517
X69469Y69850
X12319Y80899
X20447Y91821
X35560Y88900
X26416Y95631
X22225Y63754
X79883Y83312
X9779Y76327
X18669Y82296
X32385Y73660
X41402Y65659
X55499Y61722
X68072Y61849
X74930Y78994
X66421Y81026
X47625Y82931
X43815Y79248
X48316Y76906
X49276Y74374
X48514Y70612
X48895Y68707
X90805Y82931
X19939Y72898
X9017Y68707
X24511Y83947
X58547Y77978
X27813Y73660
X23114Y88265
X17780Y90297
X23876Y91948
X40894Y51816
X51308Y64008
X50165Y57912
X33274Y67183
X21717Y65786
X21717Y67183
X71374Y71374
X70358Y70612
X57531Y77978
X83566Y85344
X76327Y88646
X85344Y85344
X65405Y91059
X68072Y75692
X71628Y73581
X68242Y76842
X71628Y74549
X50902Y59080
X33528Y68453
M30