G04 EAGLE Gerber RS-274X export*
G75*
%MOMM*%
%FSLAX34Y34*%
%LPD*%
%INSoldermask Bottom*%
%IPPOS*%
%AMOC8*
5,1,8,0,0,1.08239X$1,22.5*%
G01*
%ADD10R,1.553200X1.153200*%
%ADD11R,1.553200X3.453200*%
%ADD12R,1.733200X1.733200*%
%ADD13C,1.733200*%
%ADD14C,3.203200*%
%ADD15R,3.403600X2.768600*%
%ADD16R,0.812800X1.866900*%
%ADD17R,1.283200X1.253200*%
%ADD18R,1.611200X1.611200*%
%ADD19R,1.703200X1.503200*%
%ADD20R,1.503200X1.703200*%
%ADD21R,1.253200X1.283200*%
%ADD22R,1.203200X1.303200*%
%ADD23C,1.625600*%
%ADD24R,2.006600X1.219200*%
%ADD25R,1.303200X1.203200*%
%ADD26R,1.503200X1.803200*%
%ADD27P,1.759533X8X112.500000*%
%ADD28R,1.203200X1.603200*%
%ADD29C,3.503200*%
%ADD30R,2.003200X2.003200*%
%ADD31C,2.003200*%
%ADD32R,0.803200X0.653200*%
%ADD33R,3.503200X3.503200*%
%ADD34R,3.403200X2.003200*%
%ADD35R,2.003200X3.403200*%
%ADD36R,1.203200X0.803200*%
%ADD37R,4.013200X2.235200*%
%ADD38R,8.583200X10.863200*%
%ADD39R,1.673200X0.853200*%
%ADD40R,1.003200X1.103200*%
%ADD41R,1.403200X0.803200*%
%ADD42R,1.253200X0.803200*%
%ADD43R,3.003200X1.003200*%
%ADD44R,8.203200X8.903200*%
%ADD45R,1.003200X0.703200*%
%ADD46R,3.903200X0.903200*%
%ADD47R,1.603200X0.903200*%
%ADD48C,1.259600*%
%ADD49C,1.209600*%
%ADD50C,0.959600*%


D10*
X101120Y707250D03*
X101120Y730250D03*
X101120Y753250D03*
D11*
X168120Y730250D03*
D12*
X416800Y909300D03*
D13*
X416800Y879300D03*
X446800Y909300D03*
X446800Y879300D03*
D14*
X431800Y952500D03*
D15*
X317500Y896747D03*
X317500Y957453D03*
D16*
X208280Y957898D03*
X220980Y957898D03*
X233680Y957898D03*
X246380Y957898D03*
X246380Y901383D03*
X233680Y901383D03*
X220980Y901383D03*
X208280Y901383D03*
D17*
X177800Y918350D03*
X177800Y935850D03*
D18*
X139700Y802640D03*
X165100Y802640D03*
X190500Y802640D03*
D19*
X146050Y917600D03*
X146050Y936600D03*
D20*
X127660Y836930D03*
X146660Y836930D03*
D21*
X186550Y836930D03*
X169050Y836930D03*
D17*
X473710Y706260D03*
X473710Y723760D03*
X455930Y673240D03*
X455930Y690740D03*
D22*
X473710Y673490D03*
X473710Y690490D03*
D23*
X906780Y625602D02*
X906780Y611378D01*
X932180Y611378D02*
X932180Y625602D01*
X957580Y625602D02*
X957580Y611378D01*
D24*
X394970Y735584D03*
X394970Y760476D03*
D17*
X416560Y758330D03*
X416560Y775830D03*
X416560Y742810D03*
X416560Y725310D03*
D25*
X444500Y730640D03*
X444500Y747640D03*
D26*
X924720Y834390D03*
X944720Y834390D03*
D27*
X947420Y706120D03*
X922020Y706120D03*
X947420Y731520D03*
X922020Y731520D03*
X947420Y756920D03*
X922020Y756920D03*
X947420Y782320D03*
X922020Y782320D03*
X947420Y807720D03*
X922020Y807720D03*
D12*
X554200Y909300D03*
D13*
X584200Y909300D03*
X614200Y909300D03*
D14*
X584200Y952500D03*
D12*
X693900Y909300D03*
D13*
X723900Y909300D03*
X753900Y909300D03*
D14*
X723900Y952500D03*
D17*
X783590Y809130D03*
X783590Y826630D03*
D28*
X845820Y815770D03*
X855320Y837770D03*
X836320Y837770D03*
D22*
X780170Y877570D03*
X797170Y877570D03*
X780170Y852170D03*
X797170Y852170D03*
D21*
X759320Y864870D03*
X741820Y864870D03*
D29*
X937260Y932180D03*
X60960Y932180D03*
X60960Y55880D03*
X937260Y55880D03*
D14*
X389300Y157700D03*
X314300Y32700D03*
X239300Y157700D03*
X164300Y32700D03*
D30*
X558800Y152400D03*
D31*
X608800Y152400D03*
X658800Y152400D03*
X708800Y152400D03*
X758800Y152400D03*
X808800Y152400D03*
X858800Y152400D03*
X908800Y152400D03*
X958800Y152400D03*
X958800Y427400D03*
X908800Y427400D03*
X858800Y427400D03*
X808800Y427400D03*
X758800Y427400D03*
X708800Y427400D03*
X658800Y427400D03*
X608800Y427400D03*
X558800Y427400D03*
D22*
X369180Y53340D03*
X352180Y53340D03*
X403470Y53340D03*
X386470Y53340D03*
X245500Y58420D03*
X262500Y58420D03*
X207400Y58420D03*
X224400Y58420D03*
D32*
X226500Y90170D03*
X205300Y90170D03*
X384370Y78740D03*
X405570Y78740D03*
D33*
X342900Y330200D03*
D29*
X442900Y330200D03*
D34*
X321310Y104080D03*
X321310Y160080D03*
D35*
X248860Y469900D03*
X304860Y469900D03*
D36*
X170610Y524510D03*
X192610Y524510D03*
D20*
X215290Y551180D03*
X234290Y551180D03*
X215290Y577850D03*
X234290Y577850D03*
D37*
X687120Y532130D03*
X687120Y481330D03*
D38*
X587970Y506730D03*
D39*
X239050Y654050D03*
X239050Y666750D03*
X239050Y679450D03*
X239050Y692150D03*
X294350Y692150D03*
X294350Y679450D03*
X294350Y666750D03*
X294350Y654050D03*
D21*
X261480Y715010D03*
X243980Y715010D03*
D20*
X338480Y624840D03*
X357480Y624840D03*
D40*
X336210Y650240D03*
X357210Y650240D03*
D41*
X288090Y534010D03*
X288090Y524510D03*
X288090Y515010D03*
X263090Y515010D03*
X263090Y534010D03*
D21*
X172860Y487680D03*
X190360Y487680D03*
D42*
X287860Y575920D03*
X287860Y556920D03*
X265860Y566420D03*
D32*
X236660Y603250D03*
X215460Y603250D03*
D17*
X316230Y571360D03*
X316230Y553860D03*
D33*
X203200Y330200D03*
D29*
X103200Y330200D03*
D43*
X694400Y318650D03*
X694400Y330650D03*
X694400Y342650D03*
X694400Y354650D03*
X694400Y366650D03*
X694400Y378650D03*
X694400Y390650D03*
X694400Y402650D03*
D44*
X773400Y360650D03*
D45*
X704400Y336650D03*
X704400Y348650D03*
X704400Y360650D03*
X704400Y372650D03*
X704400Y384650D03*
X704400Y396650D03*
D46*
X751900Y313650D03*
X751900Y407650D03*
D47*
X806400Y313650D03*
X806400Y407650D03*
D20*
X225400Y114300D03*
X206400Y114300D03*
X384200Y101600D03*
X403200Y101600D03*
D17*
X285750Y125870D03*
X285750Y143370D03*
D21*
X261480Y735330D03*
X243980Y735330D03*
D48*
X406400Y292100D03*
X114300Y228600D03*
X88900Y228600D03*
X88900Y203200D03*
X114300Y203200D03*
X88900Y177800D03*
X114300Y177800D03*
X63500Y177800D03*
X38100Y177800D03*
X38100Y203200D03*
X63500Y203200D03*
X63500Y228600D03*
X38100Y228600D03*
X38100Y254000D03*
X38100Y279400D03*
X63500Y254000D03*
X63500Y279400D03*
X88900Y254000D03*
X88900Y279400D03*
X114300Y254000D03*
X114300Y279400D03*
X381000Y190500D03*
X406400Y215900D03*
X431800Y215900D03*
X457200Y215900D03*
X457200Y241300D03*
X431800Y241300D03*
X406400Y241300D03*
X381000Y228600D03*
X381000Y254000D03*
X406400Y266700D03*
X431800Y266700D03*
X457200Y266700D03*
X457200Y292100D03*
X431800Y292100D03*
X571500Y292100D03*
X596900Y292100D03*
X622300Y292100D03*
X622300Y317500D03*
X596900Y317500D03*
X571500Y317500D03*
X571500Y342900D03*
X596900Y342900D03*
X622300Y342900D03*
X622300Y368300D03*
X596900Y368300D03*
X571500Y368300D03*
X571500Y393700D03*
X596900Y393700D03*
X622300Y393700D03*
D49*
X38100Y368300D03*
X63500Y368300D03*
X88900Y368300D03*
X114300Y368300D03*
D50*
X513080Y640080D03*
X408940Y518160D03*
X238760Y919480D03*
X177800Y902970D03*
X231140Y882650D03*
X278130Y736600D03*
X245110Y839470D03*
X90170Y687070D03*
X199390Y728980D03*
X908050Y829310D03*
X488950Y687070D03*
X485140Y706120D03*
X492760Y743740D03*
X483160Y769060D03*
X438150Y792480D03*
X476250Y829310D03*
X664210Y810260D03*
X749300Y789940D03*
X680720Y618490D03*
X554990Y617220D03*
X414020Y656590D03*
X323850Y736600D03*
X186690Y822960D03*
X97790Y763270D03*
X798830Y833120D03*
X222250Y637540D03*
X264160Y956310D03*
X355600Y889000D03*
X204470Y918210D03*
X123190Y808990D03*
X694690Y698500D03*
X533400Y725170D03*
X885190Y697230D03*
X901700Y708660D03*
X641350Y687070D03*
X566222Y781050D03*
X576580Y840740D03*
X481876Y756965D03*
X482600Y747080D03*
X657860Y824230D03*
X641350Y721360D03*
X585470Y779780D03*
X713740Y713740D03*
X703580Y706120D03*
X575310Y779780D03*
X835660Y853440D03*
X763270Y886460D03*
X853440Y853440D03*
X654050Y910590D03*
X680720Y756920D03*
X716280Y735810D03*
X682421Y768420D03*
X716280Y745490D03*
X509020Y590800D03*
X335280Y684530D03*
X501650Y579120D03*
X332740Y671830D03*
X217170Y657860D03*
X217170Y671830D03*
X384810Y360680D03*
X372110Y450370D03*
X373380Y466090D03*
X300990Y427990D03*
X284480Y340360D03*
X364490Y118110D03*
X264160Y119380D03*
X288290Y429260D03*
X344170Y577850D03*
X374650Y586740D03*
X275590Y346710D03*
X396240Y361950D03*
X363220Y158750D03*
X344170Y142240D03*
X276860Y516890D03*
X251460Y534010D03*
X358140Y570230D03*
X487680Y567690D03*
X666750Y314960D03*
M02*
