G04 EAGLE Gerber RS-274X export*
G75*
%MOMM*%
%FSLAX34Y34*%
%LPD*%
%INSoldermask Top*%
%IPPOS*%
%AMOC8*
5,1,8,0,0,1.08239X$1,22.5*%
G01*
%ADD10R,1.403200X1.403200*%
%ADD11R,1.733200X1.733200*%
%ADD12C,1.733200*%
%ADD13C,3.203200*%
%ADD14R,1.203200X1.303200*%
%ADD15R,1.203200X3.003200*%
%ADD16R,1.303200X1.203200*%
%ADD17R,1.611200X1.611200*%
%ADD18R,4.703200X2.453200*%
%ADD19R,1.503200X1.703200*%
%ADD20R,1.253200X1.283200*%
%ADD21C,0.343072*%
%ADD22R,1.283200X1.253200*%
%ADD23R,1.753200X1.503200*%
%ADD24C,1.625600*%
%ADD25R,1.282700X0.660400*%
%ADD26P,1.759533X8X112.500000*%
%ADD27R,2.603200X2.103200*%
%ADD28R,1.203200X2.203200*%
%ADD29C,3.503200*%
%ADD30R,1.731200X0.853200*%
%ADD31R,2.003200X2.003200*%
%ADD32C,2.003200*%
%ADD33R,3.503200X3.503200*%
%ADD34R,0.803200X1.203200*%
%ADD35R,1.703200X1.503200*%
%ADD36R,1.403200X0.803200*%
%ADD37R,1.253200X0.803200*%
%ADD38R,0.653200X0.803200*%
%ADD39R,0.853200X2.053200*%
%ADD40R,1.053200X0.703200*%
%ADD41C,1.259600*%
%ADD42C,1.209600*%
%ADD43C,0.959600*%


D10*
X168570Y715010D03*
X189570Y715010D03*
D11*
X416800Y909300D03*
D12*
X416800Y879300D03*
X446800Y909300D03*
X446800Y879300D03*
D13*
X431800Y952500D03*
D14*
X305190Y927100D03*
X322190Y927100D03*
X322190Y952500D03*
X305190Y952500D03*
X322190Y901700D03*
X305190Y901700D03*
D15*
X165100Y950600D03*
X165100Y903600D03*
D16*
X220980Y919870D03*
X220980Y936870D03*
D17*
X139700Y802640D03*
X165100Y802640D03*
X190500Y802640D03*
D18*
X69850Y786590D03*
X69850Y854250D03*
D19*
X62890Y706120D03*
X81890Y706120D03*
D20*
X81140Y734060D03*
X63640Y734060D03*
D14*
X148200Y715010D03*
X131200Y715010D03*
D16*
X80890Y754380D03*
X63890Y754380D03*
X187570Y740410D03*
X170570Y740410D03*
D21*
X501569Y789549D02*
X515771Y789549D01*
X501569Y789549D02*
X501569Y790951D01*
X515771Y790951D01*
X515771Y789549D01*
X515771Y784549D02*
X501569Y784549D01*
X501569Y785951D01*
X515771Y785951D01*
X515771Y784549D01*
X515771Y779549D02*
X501569Y779549D01*
X501569Y780951D01*
X515771Y780951D01*
X515771Y779549D01*
X515771Y774549D02*
X501569Y774549D01*
X501569Y775951D01*
X515771Y775951D01*
X515771Y774549D01*
X515771Y769549D02*
X501569Y769549D01*
X501569Y770951D01*
X515771Y770951D01*
X515771Y769549D01*
X515771Y764549D02*
X501569Y764549D01*
X501569Y765951D01*
X515771Y765951D01*
X515771Y764549D01*
X515771Y759549D02*
X501569Y759549D01*
X501569Y760951D01*
X515771Y760951D01*
X515771Y759549D01*
X515771Y754549D02*
X501569Y754549D01*
X501569Y755951D01*
X515771Y755951D01*
X515771Y754549D01*
X515771Y749549D02*
X501569Y749549D01*
X501569Y750951D01*
X515771Y750951D01*
X515771Y749549D01*
X515771Y744549D02*
X501569Y744549D01*
X501569Y745951D01*
X515771Y745951D01*
X515771Y744549D01*
X515771Y739549D02*
X501569Y739549D01*
X501569Y740951D01*
X515771Y740951D01*
X515771Y739549D01*
X515771Y734549D02*
X501569Y734549D01*
X501569Y735951D01*
X515771Y735951D01*
X515771Y734549D01*
X515771Y729549D02*
X501569Y729549D01*
X501569Y730951D01*
X515771Y730951D01*
X515771Y729549D01*
X515771Y724549D02*
X501569Y724549D01*
X501569Y725951D01*
X515771Y725951D01*
X515771Y724549D01*
X515771Y719549D02*
X501569Y719549D01*
X501569Y720951D01*
X515771Y720951D01*
X515771Y719549D01*
X515771Y714549D02*
X501569Y714549D01*
X501569Y715951D01*
X515771Y715951D01*
X515771Y714549D01*
X515771Y709549D02*
X501569Y709549D01*
X501569Y710951D01*
X515771Y710951D01*
X515771Y709549D01*
X515771Y704549D02*
X501569Y704549D01*
X501569Y705951D01*
X515771Y705951D01*
X515771Y704549D01*
X515771Y699549D02*
X501569Y699549D01*
X501569Y700951D01*
X515771Y700951D01*
X515771Y699549D01*
X515771Y694549D02*
X501569Y694549D01*
X501569Y695951D01*
X515771Y695951D01*
X515771Y694549D01*
X515771Y689549D02*
X501569Y689549D01*
X501569Y690951D01*
X515771Y690951D01*
X515771Y689549D01*
X515771Y684549D02*
X501569Y684549D01*
X501569Y685951D01*
X515771Y685951D01*
X515771Y684549D01*
X515771Y679549D02*
X501569Y679549D01*
X501569Y680951D01*
X515771Y680951D01*
X515771Y679549D01*
X515771Y674549D02*
X501569Y674549D01*
X501569Y675951D01*
X515771Y675951D01*
X515771Y674549D01*
X515771Y669549D02*
X501569Y669549D01*
X501569Y670951D01*
X515771Y670951D01*
X515771Y669549D01*
X526171Y660551D02*
X526171Y646349D01*
X524769Y646349D01*
X524769Y660551D01*
X526171Y660551D01*
X526171Y649608D02*
X524769Y649608D01*
X524769Y652867D02*
X526171Y652867D01*
X526171Y656126D02*
X524769Y656126D01*
X524769Y659385D02*
X526171Y659385D01*
X531171Y660551D02*
X531171Y646349D01*
X529769Y646349D01*
X529769Y660551D01*
X531171Y660551D01*
X531171Y649608D02*
X529769Y649608D01*
X529769Y652867D02*
X531171Y652867D01*
X531171Y656126D02*
X529769Y656126D01*
X529769Y659385D02*
X531171Y659385D01*
X536171Y660551D02*
X536171Y646349D01*
X534769Y646349D01*
X534769Y660551D01*
X536171Y660551D01*
X536171Y649608D02*
X534769Y649608D01*
X534769Y652867D02*
X536171Y652867D01*
X536171Y656126D02*
X534769Y656126D01*
X534769Y659385D02*
X536171Y659385D01*
X541171Y660551D02*
X541171Y646349D01*
X539769Y646349D01*
X539769Y660551D01*
X541171Y660551D01*
X541171Y649608D02*
X539769Y649608D01*
X539769Y652867D02*
X541171Y652867D01*
X541171Y656126D02*
X539769Y656126D01*
X539769Y659385D02*
X541171Y659385D01*
X546171Y660551D02*
X546171Y646349D01*
X544769Y646349D01*
X544769Y660551D01*
X546171Y660551D01*
X546171Y649608D02*
X544769Y649608D01*
X544769Y652867D02*
X546171Y652867D01*
X546171Y656126D02*
X544769Y656126D01*
X544769Y659385D02*
X546171Y659385D01*
X551171Y660551D02*
X551171Y646349D01*
X549769Y646349D01*
X549769Y660551D01*
X551171Y660551D01*
X551171Y649608D02*
X549769Y649608D01*
X549769Y652867D02*
X551171Y652867D01*
X551171Y656126D02*
X549769Y656126D01*
X549769Y659385D02*
X551171Y659385D01*
X556171Y660551D02*
X556171Y646349D01*
X554769Y646349D01*
X554769Y660551D01*
X556171Y660551D01*
X556171Y649608D02*
X554769Y649608D01*
X554769Y652867D02*
X556171Y652867D01*
X556171Y656126D02*
X554769Y656126D01*
X554769Y659385D02*
X556171Y659385D01*
X561171Y660551D02*
X561171Y646349D01*
X559769Y646349D01*
X559769Y660551D01*
X561171Y660551D01*
X561171Y649608D02*
X559769Y649608D01*
X559769Y652867D02*
X561171Y652867D01*
X561171Y656126D02*
X559769Y656126D01*
X559769Y659385D02*
X561171Y659385D01*
X566171Y660551D02*
X566171Y646349D01*
X564769Y646349D01*
X564769Y660551D01*
X566171Y660551D01*
X566171Y649608D02*
X564769Y649608D01*
X564769Y652867D02*
X566171Y652867D01*
X566171Y656126D02*
X564769Y656126D01*
X564769Y659385D02*
X566171Y659385D01*
X571171Y660551D02*
X571171Y646349D01*
X569769Y646349D01*
X569769Y660551D01*
X571171Y660551D01*
X571171Y649608D02*
X569769Y649608D01*
X569769Y652867D02*
X571171Y652867D01*
X571171Y656126D02*
X569769Y656126D01*
X569769Y659385D02*
X571171Y659385D01*
X576171Y660551D02*
X576171Y646349D01*
X574769Y646349D01*
X574769Y660551D01*
X576171Y660551D01*
X576171Y649608D02*
X574769Y649608D01*
X574769Y652867D02*
X576171Y652867D01*
X576171Y656126D02*
X574769Y656126D01*
X574769Y659385D02*
X576171Y659385D01*
X581171Y660551D02*
X581171Y646349D01*
X579769Y646349D01*
X579769Y660551D01*
X581171Y660551D01*
X581171Y649608D02*
X579769Y649608D01*
X579769Y652867D02*
X581171Y652867D01*
X581171Y656126D02*
X579769Y656126D01*
X579769Y659385D02*
X581171Y659385D01*
X586171Y660551D02*
X586171Y646349D01*
X584769Y646349D01*
X584769Y660551D01*
X586171Y660551D01*
X586171Y649608D02*
X584769Y649608D01*
X584769Y652867D02*
X586171Y652867D01*
X586171Y656126D02*
X584769Y656126D01*
X584769Y659385D02*
X586171Y659385D01*
X591171Y660551D02*
X591171Y646349D01*
X589769Y646349D01*
X589769Y660551D01*
X591171Y660551D01*
X591171Y649608D02*
X589769Y649608D01*
X589769Y652867D02*
X591171Y652867D01*
X591171Y656126D02*
X589769Y656126D01*
X589769Y659385D02*
X591171Y659385D01*
X596171Y660551D02*
X596171Y646349D01*
X594769Y646349D01*
X594769Y660551D01*
X596171Y660551D01*
X596171Y649608D02*
X594769Y649608D01*
X594769Y652867D02*
X596171Y652867D01*
X596171Y656126D02*
X594769Y656126D01*
X594769Y659385D02*
X596171Y659385D01*
X601171Y660551D02*
X601171Y646349D01*
X599769Y646349D01*
X599769Y660551D01*
X601171Y660551D01*
X601171Y649608D02*
X599769Y649608D01*
X599769Y652867D02*
X601171Y652867D01*
X601171Y656126D02*
X599769Y656126D01*
X599769Y659385D02*
X601171Y659385D01*
X606171Y660551D02*
X606171Y646349D01*
X604769Y646349D01*
X604769Y660551D01*
X606171Y660551D01*
X606171Y649608D02*
X604769Y649608D01*
X604769Y652867D02*
X606171Y652867D01*
X606171Y656126D02*
X604769Y656126D01*
X604769Y659385D02*
X606171Y659385D01*
X611171Y660551D02*
X611171Y646349D01*
X609769Y646349D01*
X609769Y660551D01*
X611171Y660551D01*
X611171Y649608D02*
X609769Y649608D01*
X609769Y652867D02*
X611171Y652867D01*
X611171Y656126D02*
X609769Y656126D01*
X609769Y659385D02*
X611171Y659385D01*
X616171Y660551D02*
X616171Y646349D01*
X614769Y646349D01*
X614769Y660551D01*
X616171Y660551D01*
X616171Y649608D02*
X614769Y649608D01*
X614769Y652867D02*
X616171Y652867D01*
X616171Y656126D02*
X614769Y656126D01*
X614769Y659385D02*
X616171Y659385D01*
X621171Y660551D02*
X621171Y646349D01*
X619769Y646349D01*
X619769Y660551D01*
X621171Y660551D01*
X621171Y649608D02*
X619769Y649608D01*
X619769Y652867D02*
X621171Y652867D01*
X621171Y656126D02*
X619769Y656126D01*
X619769Y659385D02*
X621171Y659385D01*
X626171Y660551D02*
X626171Y646349D01*
X624769Y646349D01*
X624769Y660551D01*
X626171Y660551D01*
X626171Y649608D02*
X624769Y649608D01*
X624769Y652867D02*
X626171Y652867D01*
X626171Y656126D02*
X624769Y656126D01*
X624769Y659385D02*
X626171Y659385D01*
X631171Y660551D02*
X631171Y646349D01*
X629769Y646349D01*
X629769Y660551D01*
X631171Y660551D01*
X631171Y649608D02*
X629769Y649608D01*
X629769Y652867D02*
X631171Y652867D01*
X631171Y656126D02*
X629769Y656126D01*
X629769Y659385D02*
X631171Y659385D01*
X636171Y660551D02*
X636171Y646349D01*
X634769Y646349D01*
X634769Y660551D01*
X636171Y660551D01*
X636171Y649608D02*
X634769Y649608D01*
X634769Y652867D02*
X636171Y652867D01*
X636171Y656126D02*
X634769Y656126D01*
X634769Y659385D02*
X636171Y659385D01*
X641171Y660551D02*
X641171Y646349D01*
X639769Y646349D01*
X639769Y660551D01*
X641171Y660551D01*
X641171Y649608D02*
X639769Y649608D01*
X639769Y652867D02*
X641171Y652867D01*
X641171Y656126D02*
X639769Y656126D01*
X639769Y659385D02*
X641171Y659385D01*
X646171Y660551D02*
X646171Y646349D01*
X644769Y646349D01*
X644769Y660551D01*
X646171Y660551D01*
X646171Y649608D02*
X644769Y649608D01*
X644769Y652867D02*
X646171Y652867D01*
X646171Y656126D02*
X644769Y656126D01*
X644769Y659385D02*
X646171Y659385D01*
X655169Y669549D02*
X669371Y669549D01*
X655169Y669549D02*
X655169Y670951D01*
X669371Y670951D01*
X669371Y669549D01*
X669371Y674549D02*
X655169Y674549D01*
X655169Y675951D01*
X669371Y675951D01*
X669371Y674549D01*
X669371Y679549D02*
X655169Y679549D01*
X655169Y680951D01*
X669371Y680951D01*
X669371Y679549D01*
X669371Y684549D02*
X655169Y684549D01*
X655169Y685951D01*
X669371Y685951D01*
X669371Y684549D01*
X669371Y689549D02*
X655169Y689549D01*
X655169Y690951D01*
X669371Y690951D01*
X669371Y689549D01*
X669371Y694549D02*
X655169Y694549D01*
X655169Y695951D01*
X669371Y695951D01*
X669371Y694549D01*
X669371Y699549D02*
X655169Y699549D01*
X655169Y700951D01*
X669371Y700951D01*
X669371Y699549D01*
X669371Y704549D02*
X655169Y704549D01*
X655169Y705951D01*
X669371Y705951D01*
X669371Y704549D01*
X669371Y709549D02*
X655169Y709549D01*
X655169Y710951D01*
X669371Y710951D01*
X669371Y709549D01*
X669371Y714549D02*
X655169Y714549D01*
X655169Y715951D01*
X669371Y715951D01*
X669371Y714549D01*
X669371Y719549D02*
X655169Y719549D01*
X655169Y720951D01*
X669371Y720951D01*
X669371Y719549D01*
X669371Y724549D02*
X655169Y724549D01*
X655169Y725951D01*
X669371Y725951D01*
X669371Y724549D01*
X669371Y729549D02*
X655169Y729549D01*
X655169Y730951D01*
X669371Y730951D01*
X669371Y729549D01*
X669371Y734549D02*
X655169Y734549D01*
X655169Y735951D01*
X669371Y735951D01*
X669371Y734549D01*
X669371Y739549D02*
X655169Y739549D01*
X655169Y740951D01*
X669371Y740951D01*
X669371Y739549D01*
X669371Y744549D02*
X655169Y744549D01*
X655169Y745951D01*
X669371Y745951D01*
X669371Y744549D01*
X669371Y749549D02*
X655169Y749549D01*
X655169Y750951D01*
X669371Y750951D01*
X669371Y749549D01*
X669371Y754549D02*
X655169Y754549D01*
X655169Y755951D01*
X669371Y755951D01*
X669371Y754549D01*
X669371Y759549D02*
X655169Y759549D01*
X655169Y760951D01*
X669371Y760951D01*
X669371Y759549D01*
X669371Y764549D02*
X655169Y764549D01*
X655169Y765951D01*
X669371Y765951D01*
X669371Y764549D01*
X669371Y769549D02*
X655169Y769549D01*
X655169Y770951D01*
X669371Y770951D01*
X669371Y769549D01*
X669371Y774549D02*
X655169Y774549D01*
X655169Y775951D01*
X669371Y775951D01*
X669371Y774549D01*
X669371Y779549D02*
X655169Y779549D01*
X655169Y780951D01*
X669371Y780951D01*
X669371Y779549D01*
X669371Y784549D02*
X655169Y784549D01*
X655169Y785951D01*
X669371Y785951D01*
X669371Y784549D01*
X669371Y789549D02*
X655169Y789549D01*
X655169Y790951D01*
X669371Y790951D01*
X669371Y789549D01*
X646171Y799949D02*
X646171Y814151D01*
X646171Y799949D02*
X644769Y799949D01*
X644769Y814151D01*
X646171Y814151D01*
X646171Y803208D02*
X644769Y803208D01*
X644769Y806467D02*
X646171Y806467D01*
X646171Y809726D02*
X644769Y809726D01*
X644769Y812985D02*
X646171Y812985D01*
X641171Y814151D02*
X641171Y799949D01*
X639769Y799949D01*
X639769Y814151D01*
X641171Y814151D01*
X641171Y803208D02*
X639769Y803208D01*
X639769Y806467D02*
X641171Y806467D01*
X641171Y809726D02*
X639769Y809726D01*
X639769Y812985D02*
X641171Y812985D01*
X636171Y814151D02*
X636171Y799949D01*
X634769Y799949D01*
X634769Y814151D01*
X636171Y814151D01*
X636171Y803208D02*
X634769Y803208D01*
X634769Y806467D02*
X636171Y806467D01*
X636171Y809726D02*
X634769Y809726D01*
X634769Y812985D02*
X636171Y812985D01*
X631171Y814151D02*
X631171Y799949D01*
X629769Y799949D01*
X629769Y814151D01*
X631171Y814151D01*
X631171Y803208D02*
X629769Y803208D01*
X629769Y806467D02*
X631171Y806467D01*
X631171Y809726D02*
X629769Y809726D01*
X629769Y812985D02*
X631171Y812985D01*
X626171Y814151D02*
X626171Y799949D01*
X624769Y799949D01*
X624769Y814151D01*
X626171Y814151D01*
X626171Y803208D02*
X624769Y803208D01*
X624769Y806467D02*
X626171Y806467D01*
X626171Y809726D02*
X624769Y809726D01*
X624769Y812985D02*
X626171Y812985D01*
X621171Y814151D02*
X621171Y799949D01*
X619769Y799949D01*
X619769Y814151D01*
X621171Y814151D01*
X621171Y803208D02*
X619769Y803208D01*
X619769Y806467D02*
X621171Y806467D01*
X621171Y809726D02*
X619769Y809726D01*
X619769Y812985D02*
X621171Y812985D01*
X616171Y814151D02*
X616171Y799949D01*
X614769Y799949D01*
X614769Y814151D01*
X616171Y814151D01*
X616171Y803208D02*
X614769Y803208D01*
X614769Y806467D02*
X616171Y806467D01*
X616171Y809726D02*
X614769Y809726D01*
X614769Y812985D02*
X616171Y812985D01*
X611171Y814151D02*
X611171Y799949D01*
X609769Y799949D01*
X609769Y814151D01*
X611171Y814151D01*
X611171Y803208D02*
X609769Y803208D01*
X609769Y806467D02*
X611171Y806467D01*
X611171Y809726D02*
X609769Y809726D01*
X609769Y812985D02*
X611171Y812985D01*
X606171Y814151D02*
X606171Y799949D01*
X604769Y799949D01*
X604769Y814151D01*
X606171Y814151D01*
X606171Y803208D02*
X604769Y803208D01*
X604769Y806467D02*
X606171Y806467D01*
X606171Y809726D02*
X604769Y809726D01*
X604769Y812985D02*
X606171Y812985D01*
X601171Y814151D02*
X601171Y799949D01*
X599769Y799949D01*
X599769Y814151D01*
X601171Y814151D01*
X601171Y803208D02*
X599769Y803208D01*
X599769Y806467D02*
X601171Y806467D01*
X601171Y809726D02*
X599769Y809726D01*
X599769Y812985D02*
X601171Y812985D01*
X596171Y814151D02*
X596171Y799949D01*
X594769Y799949D01*
X594769Y814151D01*
X596171Y814151D01*
X596171Y803208D02*
X594769Y803208D01*
X594769Y806467D02*
X596171Y806467D01*
X596171Y809726D02*
X594769Y809726D01*
X594769Y812985D02*
X596171Y812985D01*
X591171Y814151D02*
X591171Y799949D01*
X589769Y799949D01*
X589769Y814151D01*
X591171Y814151D01*
X591171Y803208D02*
X589769Y803208D01*
X589769Y806467D02*
X591171Y806467D01*
X591171Y809726D02*
X589769Y809726D01*
X589769Y812985D02*
X591171Y812985D01*
X586171Y814151D02*
X586171Y799949D01*
X584769Y799949D01*
X584769Y814151D01*
X586171Y814151D01*
X586171Y803208D02*
X584769Y803208D01*
X584769Y806467D02*
X586171Y806467D01*
X586171Y809726D02*
X584769Y809726D01*
X584769Y812985D02*
X586171Y812985D01*
X581171Y814151D02*
X581171Y799949D01*
X579769Y799949D01*
X579769Y814151D01*
X581171Y814151D01*
X581171Y803208D02*
X579769Y803208D01*
X579769Y806467D02*
X581171Y806467D01*
X581171Y809726D02*
X579769Y809726D01*
X579769Y812985D02*
X581171Y812985D01*
X576171Y814151D02*
X576171Y799949D01*
X574769Y799949D01*
X574769Y814151D01*
X576171Y814151D01*
X576171Y803208D02*
X574769Y803208D01*
X574769Y806467D02*
X576171Y806467D01*
X576171Y809726D02*
X574769Y809726D01*
X574769Y812985D02*
X576171Y812985D01*
X571171Y814151D02*
X571171Y799949D01*
X569769Y799949D01*
X569769Y814151D01*
X571171Y814151D01*
X571171Y803208D02*
X569769Y803208D01*
X569769Y806467D02*
X571171Y806467D01*
X571171Y809726D02*
X569769Y809726D01*
X569769Y812985D02*
X571171Y812985D01*
X566171Y814151D02*
X566171Y799949D01*
X564769Y799949D01*
X564769Y814151D01*
X566171Y814151D01*
X566171Y803208D02*
X564769Y803208D01*
X564769Y806467D02*
X566171Y806467D01*
X566171Y809726D02*
X564769Y809726D01*
X564769Y812985D02*
X566171Y812985D01*
X561171Y814151D02*
X561171Y799949D01*
X559769Y799949D01*
X559769Y814151D01*
X561171Y814151D01*
X561171Y803208D02*
X559769Y803208D01*
X559769Y806467D02*
X561171Y806467D01*
X561171Y809726D02*
X559769Y809726D01*
X559769Y812985D02*
X561171Y812985D01*
X556171Y814151D02*
X556171Y799949D01*
X554769Y799949D01*
X554769Y814151D01*
X556171Y814151D01*
X556171Y803208D02*
X554769Y803208D01*
X554769Y806467D02*
X556171Y806467D01*
X556171Y809726D02*
X554769Y809726D01*
X554769Y812985D02*
X556171Y812985D01*
X551171Y814151D02*
X551171Y799949D01*
X549769Y799949D01*
X549769Y814151D01*
X551171Y814151D01*
X551171Y803208D02*
X549769Y803208D01*
X549769Y806467D02*
X551171Y806467D01*
X551171Y809726D02*
X549769Y809726D01*
X549769Y812985D02*
X551171Y812985D01*
X546171Y814151D02*
X546171Y799949D01*
X544769Y799949D01*
X544769Y814151D01*
X546171Y814151D01*
X546171Y803208D02*
X544769Y803208D01*
X544769Y806467D02*
X546171Y806467D01*
X546171Y809726D02*
X544769Y809726D01*
X544769Y812985D02*
X546171Y812985D01*
X541171Y814151D02*
X541171Y799949D01*
X539769Y799949D01*
X539769Y814151D01*
X541171Y814151D01*
X541171Y803208D02*
X539769Y803208D01*
X539769Y806467D02*
X541171Y806467D01*
X541171Y809726D02*
X539769Y809726D01*
X539769Y812985D02*
X541171Y812985D01*
X536171Y814151D02*
X536171Y799949D01*
X534769Y799949D01*
X534769Y814151D01*
X536171Y814151D01*
X536171Y803208D02*
X534769Y803208D01*
X534769Y806467D02*
X536171Y806467D01*
X536171Y809726D02*
X534769Y809726D01*
X534769Y812985D02*
X536171Y812985D01*
X531171Y814151D02*
X531171Y799949D01*
X529769Y799949D01*
X529769Y814151D01*
X531171Y814151D01*
X531171Y803208D02*
X529769Y803208D01*
X529769Y806467D02*
X531171Y806467D01*
X531171Y809726D02*
X529769Y809726D01*
X529769Y812985D02*
X531171Y812985D01*
X526171Y814151D02*
X526171Y799949D01*
X524769Y799949D01*
X524769Y814151D01*
X526171Y814151D01*
X526171Y803208D02*
X524769Y803208D01*
X524769Y806467D02*
X526171Y806467D01*
X526171Y809726D02*
X524769Y809726D01*
X524769Y812985D02*
X526171Y812985D01*
D22*
X471170Y741820D03*
X471170Y759320D03*
D20*
X542150Y626110D03*
X524650Y626110D03*
D22*
X656590Y633590D03*
X656590Y616090D03*
D20*
X685940Y805180D03*
X703440Y805180D03*
X511950Y835660D03*
X529450Y835660D03*
X511950Y850900D03*
X529450Y850900D03*
X685940Y789940D03*
X703440Y789940D03*
D22*
X640080Y633590D03*
X640080Y616090D03*
X455930Y675780D03*
X455930Y693280D03*
D14*
X473710Y676030D03*
X473710Y693030D03*
D22*
X464820Y783730D03*
X464820Y801230D03*
D16*
X430140Y674370D03*
X413140Y674370D03*
D23*
X843660Y640440D03*
X764160Y640440D03*
X843660Y685440D03*
X764160Y685440D03*
D22*
X753110Y671690D03*
X753110Y654190D03*
D16*
X556260Y834780D03*
X556260Y851780D03*
D24*
X906780Y625602D02*
X906780Y611378D01*
X932180Y611378D02*
X932180Y625602D01*
X957580Y625602D02*
X957580Y611378D01*
D25*
X278321Y917350D03*
X278321Y923850D03*
X278321Y930350D03*
X278321Y936850D03*
X250000Y936850D03*
X250000Y930350D03*
X250000Y923850D03*
X250000Y917350D03*
D22*
X424180Y725030D03*
X424180Y707530D03*
X424180Y738010D03*
X424180Y755510D03*
D26*
X947420Y706120D03*
X922020Y706120D03*
X947420Y731520D03*
X922020Y731520D03*
X947420Y756920D03*
X922020Y756920D03*
X947420Y782320D03*
X922020Y782320D03*
X947420Y807720D03*
X922020Y807720D03*
D27*
X394970Y709750D03*
X394970Y750750D03*
D11*
X554200Y909300D03*
D12*
X584200Y909300D03*
X614200Y909300D03*
D13*
X584200Y952500D03*
D11*
X693900Y909300D03*
D12*
X723900Y909300D03*
X753900Y909300D03*
D13*
X723900Y952500D03*
D22*
X800100Y763410D03*
X800100Y780910D03*
D28*
X764540Y830860D03*
X764540Y802360D03*
D29*
X937260Y932180D03*
X60960Y932180D03*
X60960Y55880D03*
X937260Y55880D03*
D14*
X465210Y723900D03*
X482210Y723900D03*
D30*
X314130Y659130D03*
X314130Y671830D03*
X314130Y684530D03*
X314130Y697230D03*
X259910Y697230D03*
X259910Y684530D03*
X259910Y671830D03*
X259910Y659130D03*
D20*
X312280Y636270D03*
X294780Y636270D03*
X259220Y636270D03*
X276720Y636270D03*
D13*
X389300Y157700D03*
X314300Y32700D03*
X239300Y157700D03*
X164300Y32700D03*
D31*
X558800Y152400D03*
D32*
X608800Y152400D03*
X658800Y152400D03*
X708800Y152400D03*
X758800Y152400D03*
X808800Y152400D03*
X858800Y152400D03*
X908800Y152400D03*
X958800Y152400D03*
X958800Y427400D03*
X908800Y427400D03*
X858800Y427400D03*
X808800Y427400D03*
X758800Y427400D03*
X708800Y427400D03*
X658800Y427400D03*
X608800Y427400D03*
X558800Y427400D03*
D33*
X342900Y330200D03*
D29*
X442900Y330200D03*
D34*
X438150Y480900D03*
X438150Y458900D03*
D35*
X467360Y479400D03*
X467360Y460400D03*
X439420Y508660D03*
X439420Y527660D03*
D36*
X360880Y466700D03*
X360880Y457200D03*
X360880Y447700D03*
X385880Y447700D03*
X385880Y466700D03*
D37*
X363650Y517500D03*
X363650Y498500D03*
X385650Y508000D03*
D22*
X415290Y478650D03*
X415290Y461150D03*
D38*
X466090Y523680D03*
X466090Y502480D03*
D39*
X826770Y768440D03*
X839470Y768440D03*
X852170Y768440D03*
X864870Y768440D03*
X864870Y874940D03*
X852170Y874940D03*
X839470Y874940D03*
X826770Y874940D03*
D40*
X372250Y817800D03*
X389750Y817800D03*
X389750Y807800D03*
X372250Y807800D03*
D14*
X321700Y812800D03*
X338700Y812800D03*
D22*
X485140Y525640D03*
X485140Y508140D03*
D33*
X203200Y330200D03*
D29*
X103200Y330200D03*
D41*
X406400Y292100D03*
X114300Y228600D03*
X88900Y228600D03*
X88900Y203200D03*
X114300Y203200D03*
X88900Y177800D03*
X114300Y177800D03*
X63500Y177800D03*
X38100Y177800D03*
X38100Y203200D03*
X63500Y203200D03*
X63500Y228600D03*
X38100Y228600D03*
X38100Y254000D03*
X38100Y279400D03*
X63500Y254000D03*
X63500Y279400D03*
X88900Y254000D03*
X88900Y279400D03*
X114300Y254000D03*
X114300Y279400D03*
X381000Y190500D03*
X406400Y215900D03*
X431800Y215900D03*
X457200Y215900D03*
X457200Y241300D03*
X431800Y241300D03*
X406400Y241300D03*
X381000Y228600D03*
X381000Y254000D03*
X406400Y266700D03*
X431800Y266700D03*
X457200Y266700D03*
X457200Y292100D03*
X431800Y292100D03*
X571500Y292100D03*
X596900Y292100D03*
X622300Y292100D03*
X622300Y317500D03*
X596900Y317500D03*
X571500Y317500D03*
X571500Y342900D03*
X596900Y342900D03*
X622300Y342900D03*
X622300Y368300D03*
X596900Y368300D03*
X571500Y368300D03*
X571500Y393700D03*
X596900Y393700D03*
X622300Y393700D03*
D42*
X38100Y368300D03*
X63500Y368300D03*
X88900Y368300D03*
X114300Y368300D03*
D43*
X513080Y640080D03*
X408940Y518160D03*
X238760Y919480D03*
X177800Y902970D03*
X231140Y882650D03*
X278130Y736600D03*
X245110Y839470D03*
X90170Y687070D03*
X199390Y728980D03*
X908050Y829310D03*
X488950Y687070D03*
X485140Y706120D03*
X492760Y743740D03*
X483160Y769060D03*
X438150Y792480D03*
X476250Y829310D03*
X664210Y810260D03*
X749300Y789940D03*
X680720Y618490D03*
X554990Y617220D03*
X414020Y656590D03*
X323850Y736600D03*
X186690Y822960D03*
X97790Y763270D03*
X798830Y833120D03*
X222250Y637540D03*
X264160Y956310D03*
X355600Y889000D03*
X204470Y918210D03*
X123190Y808990D03*
X694690Y698500D03*
X533400Y725170D03*
X885190Y697230D03*
X901700Y708660D03*
X641350Y687070D03*
X566222Y781050D03*
X576580Y840740D03*
X481876Y756965D03*
X482600Y747080D03*
X657860Y824230D03*
X641350Y721360D03*
X585470Y779780D03*
X713740Y713740D03*
X703580Y706120D03*
X575310Y779780D03*
X835660Y853440D03*
X763270Y886460D03*
X853440Y853440D03*
X654050Y910590D03*
X680720Y756920D03*
X716280Y735810D03*
X682421Y768420D03*
X716280Y745490D03*
X509020Y590800D03*
X335280Y684530D03*
X501650Y579120D03*
X332740Y671830D03*
X217170Y657860D03*
X217170Y671830D03*
X384810Y360680D03*
X372110Y450370D03*
X373380Y466090D03*
X300990Y427990D03*
X284480Y340360D03*
X364490Y118110D03*
X264160Y119380D03*
X288290Y429260D03*
X344170Y577850D03*
X374650Y586740D03*
X275590Y346710D03*
X396240Y361950D03*
X363220Y158750D03*
X344170Y142240D03*
X276860Y516890D03*
X251460Y534010D03*
X358140Y570230D03*
X487680Y567690D03*
X666750Y314960D03*
M02*
