G04 EAGLE Gerber RS-274X export*
G75*
%MOMM*%
%FSLAX34Y34*%
%LPD*%
%INSolderpaste Bottom*%
%IPPOS*%
%AMOC8*
5,1,8,0,0,1.08239X$1,22.5*%
G01*
%ADD10R,1.350000X0.950000*%
%ADD11R,1.350000X3.250000*%
%ADD12R,3.200400X2.565400*%
%ADD13R,0.609600X1.663700*%
%ADD14R,1.080000X1.050000*%
%ADD15R,1.500000X1.300000*%
%ADD16R,1.300000X1.500000*%
%ADD17R,1.050000X1.080000*%
%ADD18R,1.000000X1.100000*%
%ADD19R,1.803400X1.016000*%
%ADD20R,1.100000X1.000000*%
%ADD21R,1.300000X1.600000*%
%ADD22R,1.000000X1.400000*%
%ADD23R,0.600000X0.450000*%
%ADD24R,3.200000X1.800000*%
%ADD25R,1.800000X3.200000*%
%ADD26R,1.000000X0.600000*%
%ADD27R,3.810000X2.032000*%
%ADD28R,8.380000X10.660000*%
%ADD29R,1.470000X0.650000*%
%ADD30R,0.800000X0.900000*%
%ADD31R,1.200000X0.600000*%
%ADD32R,1.050000X0.600000*%
%ADD33R,2.800000X0.800000*%
%ADD34R,8.000000X8.700000*%
%ADD35R,0.800000X0.500000*%
%ADD36R,3.700000X0.700000*%
%ADD37R,1.400000X0.700000*%


D10*
X101120Y707250D03*
X101120Y730250D03*
X101120Y753250D03*
D11*
X168120Y730250D03*
D12*
X317500Y896747D03*
X317500Y957453D03*
D13*
X208280Y957898D03*
X220980Y957898D03*
X233680Y957898D03*
X246380Y957898D03*
X246380Y901383D03*
X233680Y901383D03*
X220980Y901383D03*
X208280Y901383D03*
D14*
X177800Y918350D03*
X177800Y935850D03*
D15*
X146050Y917600D03*
X146050Y936600D03*
D16*
X127660Y836930D03*
X146660Y836930D03*
D17*
X186550Y836930D03*
X169050Y836930D03*
D14*
X473710Y706260D03*
X473710Y723760D03*
X455930Y673240D03*
X455930Y690740D03*
D18*
X473710Y673490D03*
X473710Y690490D03*
D19*
X394970Y735584D03*
X394970Y760476D03*
D14*
X416560Y758330D03*
X416560Y775830D03*
X416560Y742810D03*
X416560Y725310D03*
D20*
X444500Y730640D03*
X444500Y747640D03*
D21*
X924720Y834390D03*
X944720Y834390D03*
D14*
X783590Y809130D03*
X783590Y826630D03*
D22*
X845820Y815770D03*
X855320Y837770D03*
X836320Y837770D03*
D18*
X780170Y877570D03*
X797170Y877570D03*
X780170Y852170D03*
X797170Y852170D03*
D17*
X759320Y864870D03*
X741820Y864870D03*
D18*
X369180Y53340D03*
X352180Y53340D03*
X403470Y53340D03*
X386470Y53340D03*
X245500Y58420D03*
X262500Y58420D03*
X207400Y58420D03*
X224400Y58420D03*
D23*
X226500Y90170D03*
X205300Y90170D03*
X384370Y78740D03*
X405570Y78740D03*
D24*
X321310Y104080D03*
X321310Y160080D03*
D25*
X248860Y469900D03*
X304860Y469900D03*
D26*
X170610Y524510D03*
X192610Y524510D03*
D16*
X215290Y551180D03*
X234290Y551180D03*
X215290Y577850D03*
X234290Y577850D03*
D27*
X687120Y532130D03*
X687120Y481330D03*
D28*
X587970Y506730D03*
D29*
X239050Y654050D03*
X239050Y666750D03*
X239050Y679450D03*
X239050Y692150D03*
X294350Y692150D03*
X294350Y679450D03*
X294350Y666750D03*
X294350Y654050D03*
D17*
X261480Y715010D03*
X243980Y715010D03*
D16*
X338480Y624840D03*
X357480Y624840D03*
D30*
X336210Y650240D03*
X357210Y650240D03*
D31*
X288090Y534010D03*
X288090Y524510D03*
X288090Y515010D03*
X263090Y515010D03*
X263090Y534010D03*
D17*
X172860Y487680D03*
X190360Y487680D03*
D32*
X287860Y575920D03*
X287860Y556920D03*
X265860Y566420D03*
D23*
X236660Y603250D03*
X215460Y603250D03*
D14*
X316230Y571360D03*
X316230Y553860D03*
D33*
X694400Y318650D03*
X694400Y330650D03*
X694400Y342650D03*
X694400Y354650D03*
X694400Y366650D03*
X694400Y378650D03*
X694400Y390650D03*
X694400Y402650D03*
D34*
X773400Y360650D03*
D35*
X704400Y336650D03*
X704400Y348650D03*
X704400Y360650D03*
X704400Y372650D03*
X704400Y384650D03*
X704400Y396650D03*
D36*
X751900Y313650D03*
X751900Y407650D03*
D37*
X806400Y313650D03*
X806400Y407650D03*
D16*
X225400Y114300D03*
X206400Y114300D03*
X384200Y101600D03*
X403200Y101600D03*
D14*
X285750Y125870D03*
X285750Y143370D03*
D17*
X261480Y735330D03*
X243980Y735330D03*
M02*
